ply
format ascii 1.0
comment Created by Blender 2.65 (sub 0) - www.blender.org, source file: 'diamond.blend'
element vertex 56
property float x
property float y
property float z
property float nx
property float ny
property float nz
element face 17
property list uchar uint vertex_indices
end_header
0.964366 1.906654 0.001118 0.524016 0.524016 0.671427
0.932446 0.956980 0.767205 0.524016 0.524016 0.671427
1.914041 0.956980 0.001118 0.524016 0.524016 0.671427
-1.916313 0.893668 0.001118 -0.621819 0.005225 0.783143
-1.947969 -0.974025 0.001118 -0.621819 0.005225 0.783143
-0.966903 -0.942370 0.767205 -0.621819 0.005225 0.783143
-0.966903 0.956980 0.767205 -0.621819 0.005225 0.783143
-0.966903 0.956980 0.767205 -0.005286 0.634343 0.773033
0.932446 0.956980 0.767205 -0.005286 0.634343 0.773033
0.964366 1.906654 0.001118 -0.005286 0.634343 0.773033
-0.934983 1.874999 0.001118 -0.005286 0.634343 0.773033
-0.934983 1.874999 0.001118 -0.547352 0.547352 0.633097
-1.916313 0.893668 0.001118 -0.547352 0.547352 0.633097
-0.966903 0.956980 0.767205 -0.547352 0.547352 0.633097
0.900790 -0.974025 0.767205 0.537748 -0.507873 0.672973
0.932711 -1.955356 0.001118 0.537748 -0.507873 0.672973
2.009008 -0.815746 0.001118 0.537748 -0.507873 0.672973
0.932446 0.956980 0.767205 0.590747 0.010098 0.806794
0.900790 -0.974025 0.767205 0.590747 0.010098 0.806794
2.009008 -0.815746 0.001118 0.590747 0.010098 0.806794
1.914041 0.956980 0.001118 0.590747 0.010098 0.806794
-0.966903 0.956980 0.767205 0.000000 0.000000 1.000000
-0.966903 -0.942370 0.767205 0.000000 0.000000 1.000000
0.900790 -0.974025 0.767205 0.000000 0.000000 1.000000
0.932446 0.956980 0.767205 0.000000 0.000000 1.000000
0.900790 -0.974025 0.767205 -0.005208 -0.609381 0.792861
-0.966903 -0.942370 0.767205 -0.005208 -0.609381 0.792861
-0.903327 -1.955356 0.001118 -0.005208 -0.609381 0.792861
0.932711 -1.955356 0.001118 -0.005208 -0.609381 0.792861
-0.966903 -0.942370 0.767205 -0.507165 -0.539885 0.671794
-1.947969 -0.974025 0.001118 -0.507165 -0.539885 0.671794
-0.903327 -1.955356 0.001118 -0.507165 -0.539885 0.671794
-0.016964 0.070618 -3.077767 0.000000 -0.835368 -0.549690
0.932711 -1.955356 0.001118 0.000000 -0.835368 -0.549690
-0.903327 -1.955356 0.001118 0.000000 -0.835368 -0.549690
2.009008 -0.815746 0.001118 0.602288 -0.568828 -0.560075
0.932711 -1.955356 0.001118 0.602288 -0.568828 -0.560075
-0.016964 0.070618 -3.077767 0.602288 -0.568828 -0.560075
-0.903327 -1.955356 0.001118 -0.567044 -0.603627 -0.560443
-1.947969 -0.974025 0.001118 -0.567044 -0.603627 -0.560443
-0.016964 0.070618 -3.077767 -0.567044 -0.603627 -0.560443
1.914041 0.956980 0.001118 0.840424 0.045023 -0.540056
2.009008 -0.815746 0.001118 0.840424 0.045023 -0.540056
-0.016964 0.070618 -3.077767 0.840424 0.045023 -0.540056
0.964366 1.906654 0.001118 0.593669 0.593669 -0.543244
1.914041 0.956980 0.001118 0.593669 0.593669 -0.543244
-0.016964 0.070618 -3.077767 0.593669 0.593669 -0.543244
-0.934983 1.874999 0.001118 -0.014347 0.860796 -0.508747
0.964366 1.906654 0.001118 -0.014347 0.860796 -0.508747
-0.016964 0.070618 -3.077767 -0.014347 0.860796 -0.508747
-1.916313 0.893668 0.001118 -0.599562 0.599562 -0.530142
-0.934983 1.874999 0.001118 -0.599562 0.599562 -0.530142
-0.016964 0.070618 -3.077767 -0.599562 0.599562 -0.530142
-1.947969 -0.974025 0.001118 -0.849272 0.014394 -0.527760
-1.916313 0.893668 0.001118 -0.849272 0.014394 -0.527760
-0.016964 0.070618 -3.077767 -0.849272 0.014394 -0.527760
3 0 1 2
4 3 4 5 6
4 7 8 9 10
3 11 12 13
3 14 15 16
4 17 18 19 20
4 21 22 23 24
4 25 26 27 28
3 29 30 31
3 32 33 34
3 35 36 37
3 38 39 40
3 41 42 43
3 44 45 46
3 47 48 49
3 50 51 52
3 53 54 55
