ply
format ascii 1.0
comment Created by Blender 2.65 (sub 0) - www.blender.org, source file: 'meteor.blend'
element vertex 234
property float x
property float y
property float z
property float nx
property float ny
property float nz
element face 78
property list uchar uint vertex_indices
end_header
-1.151963 -0.760467 1.288002 -0.270216 0.055454 0.961201
-0.057250 -0.936789 1.605924 -0.270216 0.055454 0.961201
-0.057250 0.386006 1.529609 -0.270216 0.055454 0.961201
-0.057250 0.386006 1.529609 -0.221677 0.006177 0.975101
-0.862647 0.127486 1.348150 -0.221677 0.006177 0.975101
-1.151963 -0.760467 1.288002 -0.221677 0.006177 0.975101
-0.057250 -0.936789 1.605924 -0.255496 0.055685 0.965205
1.028252 0.386006 1.816948 -0.255496 0.055685 0.965205
-0.057250 0.386006 1.529609 -0.255496 0.055685 0.965205
1.028252 0.386006 1.816948 0.466962 -0.499591 0.729627
-0.057250 -0.936789 1.605924 0.466962 -0.499591 0.729627
1.826415 0.386006 1.306124 0.466962 -0.499591 0.729627
0.781231 -1.073089 1.009268 0.455859 -0.479147 0.750074
1.826415 0.386006 1.306124 0.455859 -0.479147 0.750074
-0.057250 -0.936789 1.605924 0.455859 -0.479147 0.750074
-0.057250 -1.979762 0.664705 0.386742 -0.617833 0.684626
0.781231 -1.073089 1.009268 0.386742 -0.617833 0.684626
-0.057250 -0.936789 1.605924 0.386742 -0.617833 0.684626
0.781231 -1.073089 1.009268 0.000862 -0.355939 0.934509
-0.057250 -1.979762 0.664705 0.000862 -0.355939 0.934509
1.012612 -1.776808 0.741020 0.000862 -0.355939 0.934509
1.710212 -1.306670 0.675197 0.266415 -0.265590 0.926545
0.781231 -1.073089 1.009268 0.266415 -0.265590 0.926545
1.012612 -1.776808 0.741020 0.266415 -0.265590 0.926545
1.710212 -1.306670 0.675197 0.236548 -0.353570 0.905005
1.826415 0.386006 1.306124 0.236548 -0.353570 0.905005
0.781231 -1.073089 1.009268 0.236548 -0.353570 0.905005
1.012612 -1.776808 0.741020 0.169538 -0.966385 0.193278
-0.057250 -1.979762 0.664705 0.169538 -0.966385 0.193278
-0.057250 -2.183270 -0.352830 0.169538 -0.966385 0.193278
-0.057250 -2.183270 -0.352830 0.531646 -0.819057 -0.215635
1.710212 -1.306670 0.675197 0.531646 -0.819057 -0.215635
1.012612 -1.776808 0.741020 0.531646 -0.819057 -0.215635
-1.151963 -0.760467 1.288002 -0.307806 -0.637437 0.706349
-0.057250 -1.979762 0.664705 -0.307806 -0.637437 0.706349
-0.057250 -0.936789 1.605924 -0.307806 -0.637437 0.706349
-1.872934 -0.240626 0.179847 -0.771298 0.210623 0.600615
-1.151963 -0.760467 1.288002 -0.771298 0.210623 0.600615
-0.862647 0.127486 1.348150 -0.771298 0.210623 0.600615
-1.151963 -0.760467 1.288002 -0.809870 0.106493 0.576862
-1.872934 -0.240626 0.179847 -0.809870 0.106493 0.576862
-2.034350 -1.123144 0.116150 -0.809870 0.106493 0.576862
-1.151963 -0.760467 1.288002 -0.691750 -0.352828 0.630075
-2.034350 -1.123144 0.116150 -0.691750 -0.352828 0.630075
-1.730493 -1.647832 0.155938 -0.691750 -0.352828 0.630075
-0.057250 -1.979762 0.664705 -0.246324 -0.950366 0.190074
-1.730493 -1.647832 0.155938 -0.246324 -0.950366 0.190074
-0.057250 -2.183270 -0.352830 -0.246324 -0.950366 0.190074
-1.730493 -1.647832 0.155938 -0.336160 -0.650143 0.681403
-0.057250 -1.979762 0.664705 -0.336160 -0.650143 0.681403
-1.151963 -0.760467 1.288002 -0.336160 -0.650143 0.681403
-0.862647 0.127486 1.348150 -0.304162 0.317051 0.898312
-0.057250 0.386006 1.529609 -0.304162 0.317051 0.898312
-0.057250 1.250910 1.224349 -0.304162 0.317051 0.898312
-0.862647 0.127486 1.348150 -0.700316 -0.226473 0.676955
-2.102324 0.397243 0.155938 -0.700316 -0.226473 0.676955
-1.872934 -0.240626 0.179847 -0.700316 -0.226473 0.676955
-0.057250 1.250910 1.224349 -0.554964 0.473253 0.684139
-2.102324 0.397243 0.155938 -0.554964 0.473253 0.684139
-0.862647 0.127486 1.348150 -0.554964 0.473253 0.684139
-0.057250 1.250910 1.224349 -0.502220 0.133925 0.854306
-1.854436 1.326822 0.155938 -0.502220 0.133925 0.854306
-2.102324 0.397243 0.155938 -0.502220 0.133925 0.854306
-0.057250 1.250910 1.224349 -0.375428 0.633535 0.676526
-1.017815 1.822598 0.155938 -0.375428 0.633535 0.676526
-1.854436 1.326822 0.155938 -0.375428 0.633535 0.676526
-0.057250 1.250910 1.224349 -0.178752 0.791616 0.584288
-0.057250 2.039500 0.155938 -0.178752 0.791616 0.584288
-1.017815 1.822598 0.155938 -0.178752 0.791616 0.584288
-0.057250 2.039500 0.155938 0.054447 0.803381 0.592971
-0.057250 1.250910 1.224349 0.054447 0.803381 0.592971
0.492331 1.622740 0.670118 0.054447 0.803381 0.592971
-0.057250 0.386006 1.529609 -0.242184 0.322912 0.914918
1.028252 0.386006 1.816948 -0.242184 0.322912 0.914918
-0.057250 1.250910 1.224349 -0.242184 0.322912 0.914918
1.646055 1.478048 0.614842 0.457691 0.528289 0.715143
1.028252 0.386006 1.816948 0.457691 0.528289 0.715143
1.826415 0.386006 1.306124 0.457691 0.528289 0.715143
1.646055 1.478048 0.614842 0.161563 0.687712 0.707778
-0.057250 1.250910 1.224349 0.161563 0.687712 0.707778
1.028252 0.386006 1.816948 0.161563 0.687712 0.707778
-0.057250 1.250910 1.224349 0.125965 0.761508 0.635797
1.646055 1.478048 0.614842 0.125965 0.761508 0.635797
0.492331 1.622740 0.670118 0.125965 0.761508 0.635797
0.492331 1.622740 0.670118 0.130305 0.834449 0.535459
1.646055 1.478048 0.614842 0.130305 0.834449 0.535459
0.858325 1.801584 0.302345 0.130305 0.834449 0.535459
0.492331 1.622740 0.670118 0.131018 0.834016 0.535959
0.858325 1.801584 0.302345 0.131018 0.834016 0.535959
-0.057250 2.039500 0.155938 0.131018 0.834016 0.535959
1.826415 0.386006 1.306124 0.740038 -0.194009 0.643975
2.132095 -1.046134 0.523386 0.740038 -0.194009 0.643975
2.387837 -0.140239 0.502411 0.740038 -0.194009 0.643975
1.646055 1.478048 0.614842 0.857940 0.368379 0.358100
1.826415 0.386006 1.306124 0.857940 0.368379 0.358100
2.387837 -0.140239 0.502411 0.857940 0.368379 0.358100
2.132095 -1.046134 0.523386 0.494601 -0.333163 0.802728
1.826415 0.386006 1.306124 0.494601 -0.333163 0.802728
1.710212 -1.306670 0.675197 0.494601 -0.333163 0.802728
1.980005 0.059517 -0.481511 0.873461 -0.256173 -0.414055
2.387837 -0.140239 0.502411 0.873461 -0.256173 -0.414055
2.132095 -1.046134 0.523386 0.873461 -0.256173 -0.414055
-2.003839 -1.121426 -0.495488 -0.863039 -0.503176 -0.044465
-1.730493 -1.647832 0.155938 -0.863039 -0.503176 -0.044465
-2.034350 -1.123144 0.116150 -0.863039 -0.503176 -0.044465
-1.872934 -0.240626 0.179847 -0.981900 0.183092 -0.048467
-2.003839 -1.121426 -0.495488 -0.981900 0.183092 -0.048467
-2.034350 -1.123144 0.116150 -0.981900 0.183092 -0.048467
-1.872934 -0.240626 0.179847 -0.952474 -0.083137 0.293055
-2.122766 -0.171244 -0.612462 -0.952474 -0.083137 0.293055
-2.003839 -1.121426 -0.495488 -0.952474 -0.083137 0.293055
-2.102324 0.397243 0.155938 -0.911787 -0.318164 0.259644
-2.122766 -0.171244 -0.612462 -0.911787 -0.318164 0.259644
-1.872934 -0.240626 0.179847 -0.911787 -0.318164 0.259644
-2.003839 -1.121426 -0.495488 -0.395542 -0.788409 -0.471125
-0.057250 -2.183270 -0.352830 -0.395542 -0.788409 -0.471125
-1.730493 -1.647832 0.155938 -0.395542 -0.788409 -0.471125
-1.854436 1.326822 0.155938 -0.953357 0.254228 -0.162724
-2.122766 -0.171244 -0.612462 -0.953357 0.254228 -0.162724
-2.102324 0.397243 0.155938 -0.953357 0.254228 -0.162724
-1.557662 1.205752 -0.738864 -0.490217 0.827241 -0.274517
-1.854436 1.326822 0.155938 -0.490217 0.827241 -0.274517
-1.017815 1.822598 0.155938 -0.490217 0.827241 -0.274517
-1.854436 1.326822 0.155938 -0.881442 0.330790 -0.337101
-1.557662 1.205752 -0.738864 -0.881442 0.330790 -0.337101
-2.122766 -0.171244 -0.612462 -0.881442 0.330790 -0.337101
-0.057250 2.039500 0.155938 -0.193845 0.858457 -0.474842
-1.557662 1.205752 -0.738864 -0.193845 0.858457 -0.474842
-1.017815 1.822598 0.155938 -0.193845 0.858457 -0.474842
-1.557662 1.205752 -0.738864 -0.298935 0.894560 -0.332265
-0.057250 2.039500 0.155938 -0.298935 0.894560 -0.332265
-0.057250 1.708801 -0.734405 -0.298935 0.894560 -0.332265
-0.057250 2.039500 0.155938 0.286707 0.898070 -0.333569
0.858325 1.801584 0.302345 0.286707 0.898070 -0.333569
-0.057250 1.708801 -0.734405 0.286707 0.898070 -0.333569
1.980005 0.059517 -0.481511 0.866703 0.416361 -0.274716
1.646055 1.478048 0.614842 0.866703 0.416361 -0.274716
2.387837 -0.140239 0.502411 0.866703 0.416361 -0.274716
1.910554 -1.348014 -0.045989 0.566356 -0.798739 0.203121
2.132095 -1.046134 0.523386 0.566356 -0.798739 0.203121
1.710212 -1.306670 0.675197 0.566356 -0.798739 0.203121
2.132095 -1.046134 0.523386 0.945557 -0.137877 -0.294810
1.910554 -1.348014 -0.045989 0.945557 -0.137877 -0.294810
1.980005 0.059517 -0.481511 0.945557 -0.137877 -0.294810
1.262128 -1.960895 -0.156123 0.044360 -0.796546 0.602949
1.710212 -1.306670 0.675197 0.044360 -0.796546 0.602949
-0.057250 -2.183270 -0.352830 0.044360 -0.796546 0.602949
1.710212 -1.306670 0.675197 0.649555 -0.727143 0.222129
1.262128 -1.960895 -0.156123 0.649555 -0.727143 0.222129
1.910554 -1.348014 -0.045989 0.649555 -0.727143 0.222129
1.980005 0.059517 -0.481511 0.495598 0.601173 -0.626876
0.858325 1.801584 0.302345 0.495598 0.601173 -0.626876
1.646055 1.478048 0.614842 0.495598 0.601173 -0.626876
1.028418 1.216562 -0.602087 0.761145 0.600431 -0.245237
0.858325 1.801584 0.302345 0.761145 0.600431 -0.245237
1.980005 0.059517 -0.481511 0.761145 0.600431 -0.245237
1.028418 1.216562 -0.602087 0.414971 0.797552 -0.437846
-0.057250 1.708801 -0.734405 0.414971 0.797552 -0.437846
0.858325 1.801584 0.302345 0.414971 0.797552 -0.437846
0.786683 1.260412 -0.950625 0.424371 0.886854 -0.182753
-0.057250 1.708801 -0.734405 0.424371 0.886854 -0.182753
1.028418 1.216562 -0.602087 0.424371 0.886854 -0.182753
-0.057250 1.708801 -0.734405 0.308033 0.815798 -0.489479
0.786683 1.260412 -0.950625 0.308033 0.815798 -0.489479
-0.057250 1.403540 -1.243172 0.308033 0.815798 -0.489479
1.182240 -0.066420 -1.246142 0.593875 0.416698 -0.688241
1.028418 1.216562 -0.602087 0.593875 0.416698 -0.688241
1.980005 0.059517 -0.481511 0.593875 0.416698 -0.688241
1.028418 1.216562 -0.602087 0.790298 0.347935 -0.504351
1.182240 -0.066420 -1.246142 0.790298 0.347935 -0.504351
0.786683 1.260412 -0.950625 0.790298 0.347935 -0.504351
-0.057250 1.403540 -1.243172 0.354953 0.554572 -0.752634
0.786683 1.260412 -0.950625 0.354953 0.554572 -0.752634
-0.057250 0.920211 -1.599309 0.354953 0.554572 -0.752634
-0.057250 0.920211 -1.599309 0.489947 0.326125 -0.808452
0.786683 1.260412 -0.950625 0.489947 0.326125 -0.808452
1.182240 -0.066420 -1.246142 0.489947 0.326125 -0.808452
-1.557662 1.205752 -0.738864 -0.274945 0.824445 -0.494667
-0.057250 1.708801 -0.734405 -0.274945 0.824445 -0.494667
-0.057250 1.403540 -1.243172 -0.274945 0.824445 -0.494667
-1.557662 1.205752 -0.738864 -0.185139 0.967666 -0.171306
-0.057250 1.403540 -1.243172 -0.185139 0.967666 -0.171306
-1.656960 1.110209 -1.171242 -0.185139 0.967666 -0.171306
-1.656960 1.110209 -1.171242 -0.143471 0.587062 -0.796727
-0.057250 1.403540 -1.243172 -0.143471 0.587062 -0.796727
-0.057250 0.920211 -1.599309 -0.143471 0.587062 -0.796727
-1.656960 1.110209 -1.171242 -0.913865 0.386467 0.124477
-2.122766 -0.171244 -0.612462 -0.913865 0.386467 0.124477
-1.557662 1.205752 -0.738864 -0.913865 0.386467 0.124477
-2.122766 -0.171244 -0.612462 -0.707601 -0.172909 -0.685131
-1.370215 -0.572891 -1.288328 -0.707601 -0.172909 -0.685131
-2.003839 -1.121426 -0.495488 -0.707601 -0.172909 -0.685131
-1.370215 -0.572891 -1.288328 -0.686116 -0.066495 -0.724447
-2.122766 -0.171244 -0.612462 -0.686116 -0.066495 -0.724447
-1.656960 1.110209 -1.171242 -0.686116 -0.066495 -0.724447
-1.370215 -0.572891 -1.288328 -0.304674 -0.651834 -0.694468
-0.057250 -2.183270 -0.352830 -0.304674 -0.651834 -0.694468
-2.003839 -1.121426 -0.495488 -0.304674 -0.651834 -0.694468
-1.370215 -0.572891 -1.288328 -0.597673 -0.706962 -0.378143
-0.057250 -1.598187 -1.446679 -0.597673 -0.706962 -0.378143
-0.057250 -2.183270 -0.352830 -0.597673 -0.706962 -0.378143
-1.370215 -0.572891 -1.288328 -0.430099 -0.428009 -0.794873
-0.057250 -0.936789 -1.802817 -0.430099 -0.428009 -0.794873
-0.057250 -1.598187 -1.446679 -0.430099 -0.428009 -0.794873
-1.370215 -0.572891 -1.288328 -0.389739 -0.114227 -0.913814
-0.057250 0.080745 -1.930008 -0.389739 -0.114227 -0.913814
-0.057250 -0.936789 -1.802817 -0.389739 -0.114227 -0.913814
-1.656960 1.110209 -1.171242 -0.434488 -0.011371 -0.900606
-0.057250 0.080745 -1.930008 -0.434488 -0.011371 -0.900606
-1.370215 -0.572891 -1.288328 -0.434488 -0.011371 -0.900606
-1.656960 1.110209 -1.171242 -0.201234 0.359027 -0.911375
-0.057250 0.920211 -1.599309 -0.201234 0.359027 -0.911375
-0.057250 0.080745 -1.930008 -0.201234 0.359027 -0.911375
-0.057250 0.920211 -1.599309 0.486509 0.320224 -0.812875
1.182240 -0.066420 -1.246142 0.486509 0.320224 -0.812875
-0.057250 0.080745 -1.930008 0.486509 0.320224 -0.812875
1.910554 -1.348014 -0.045989 0.690783 -0.244624 -0.680425
1.182240 -0.066420 -1.246142 0.690783 -0.244624 -0.680425
1.980005 0.059517 -0.481511 0.690783 -0.244624 -0.680425
1.182240 -0.066420 -1.246142 0.515926 -0.410764 -0.751727
1.910554 -1.348014 -0.045989 0.515926 -0.410764 -0.751727
1.262128 -1.960895 -0.156123 0.515926 -0.410764 -0.751727
-0.057250 -1.598187 -1.446679 0.213873 -0.861381 -0.460739
1.262128 -1.960895 -0.156123 0.213873 -0.861381 -0.460739
-0.057250 -2.183270 -0.352830 0.213873 -0.861381 -0.460739
1.262128 -1.960895 -0.156123 0.589533 -0.384010 -0.710624
-0.057250 -1.598187 -1.446679 0.589533 -0.384010 -0.710624
1.182240 -0.066420 -1.246142 0.589533 -0.384010 -0.710624
-0.057250 -0.936789 -1.802817 0.588739 -0.383226 -0.711705
1.182240 -0.066420 -1.246142 0.588739 -0.383226 -0.711705
-0.057250 -1.598187 -1.446679 0.588739 -0.383226 -0.711705
-0.057250 0.080745 -1.930008 0.470184 -0.109469 -0.875753
1.182240 -0.066420 -1.246142 0.470184 -0.109469 -0.875753
-0.057250 -0.936789 -1.802817 0.470184 -0.109469 -0.875753
3 0 1 2
3 3 4 5
3 6 7 8
3 9 10 11
3 12 13 14
3 15 16 17
3 18 19 20
3 21 22 23
3 24 25 26
3 27 28 29
3 30 31 32
3 33 34 35
3 36 37 38
3 39 40 41
3 42 43 44
3 45 46 47
3 48 49 50
3 51 52 53
3 54 55 56
3 57 58 59
3 60 61 62
3 63 64 65
3 66 67 68
3 69 70 71
3 72 73 74
3 75 76 77
3 78 79 80
3 81 82 83
3 84 85 86
3 87 88 89
3 90 91 92
3 93 94 95
3 96 97 98
3 99 100 101
3 102 103 104
3 105 106 107
3 108 109 110
3 111 112 113
3 114 115 116
3 117 118 119
3 120 121 122
3 123 124 125
3 126 127 128
3 129 130 131
3 132 133 134
3 135 136 137
3 138 139 140
3 141 142 143
3 144 145 146
3 147 148 149
3 150 151 152
3 153 154 155
3 156 157 158
3 159 160 161
3 162 163 164
3 165 166 167
3 168 169 170
3 171 172 173
3 174 175 176
3 177 178 179
3 180 181 182
3 183 184 185
3 186 187 188
3 189 190 191
3 192 193 194
3 195 196 197
3 198 199 200
3 201 202 203
3 204 205 206
3 207 208 209
3 210 211 212
3 213 214 215
3 216 217 218
3 219 220 221
3 222 223 224
3 225 226 227
3 228 229 230
3 231 232 233
