ply
format ascii 1.0
comment Created by Blender 2.65 (sub 0) - www.blender.org, source file: 'shadow.blend'
element vertex 24
property float x
property float y
property float z
property float nx
property float ny
property float nz
element face 19
property list uchar uint vertex_indices
end_header
-4.237916 0.393456 0.000000 0.000000 0.000000 -1.000000
-4.020471 1.087610 0.000000 0.000000 0.000000 -1.000000
-1.126766 1.731585 0.000000 0.000000 0.000000 -1.000000
-0.992953 0.033834 0.000000 0.000000 0.000000 -1.000000
-1.018043 1.723222 0.000000 -0.000000 -0.000000 -1.000000
0.938971 2.551189 0.000000 0.000000 0.000000 -1.000000
-0.959500 2.534463 0.000000 0.000000 -0.000000 -1.000000
1.005878 1.723222 0.000000 -0.000000 0.000000 -1.000000
0.997515 0.033833 0.000000 -0.000000 -0.000000 1.000000
-0.992953 0.033834 0.000000 -0.000000 -0.000000 1.000000
-0.875866 -0.601778 0.000000 -0.000000 -0.000000 1.000000
1.005878 1.723222 0.000000 -0.000000 0.000000 1.000000
3.999942 1.104337 0.000000 0.000000 -0.000000 -1.000000
0.997515 0.033833 0.000000 0.000000 -0.000000 -1.000000
4.234115 0.401819 0.000000 -0.000000 0.000000 -1.000000
0.863702 -0.601778 0.000000 0.000000 -0.000000 1.000000
-0.516244 -0.735591 0.000000 0.000000 0.000000 1.000000
0.545896 -0.685411 0.000000 0.000000 -0.000000 1.000000
-0.323888 -1.505015 0.000000 -0.000000 0.000000 1.000000
0.328450 -1.488289 0.000000 0.000000 -0.000000 1.000000
0.269907 -2.341347 0.000000 0.000000 -0.000000 1.000000
0.094277 -2.366436 0.000000 -0.000000 -0.000000 1.000000
-0.098079 -2.374799 0.000000 -0.000000 -0.000000 1.000000
-0.256981 -2.332983 0.000000 -0.000000 -0.000000 1.000000
3 0 1 2
3 2 3 0
3 3 2 4
3 5 3 4
3 5 4 6
3 3 5 7
3 8 9 10
3 8 11 9
3 12 13 7
3 13 12 14
3 8 10 15
3 16 15 10
3 15 16 17
3 18 17 16
3 17 18 19
3 19 18 20
3 20 18 21
3 21 18 22
3 22 18 23
